Coordinates
version=1
nRows=11
nColumns=63
inDegrees=yes

Units are S.I. units (second, meters, Newtons, ...)
If the header above contains a line with 'inDegrees', this indicates whether rotational values are in degrees (yes) or radians (no).

endheader
time	pelvis_tilt	pelvis_list	pelvis_rotation	pelvis_tx	pelvis_ty	pelvis_tz	hip_flexion_r	hip_adduction_r	hip_rotation_r	knee_angle_r	knee_angle_r_beta	ankle_angle_r	subtalar_angle_r	mtp_angle_r	hip_flexion_l	hip_adduction_l	hip_rotation_l	knee_angle_l	knee_angle_l_beta	ankle_angle_l	subtalar_angle_l	mtp_angle_l	L5_S1_Flex_Ext	L5_S1_Lat_Bending	L5_S1_axial_rotation	L4_L5_Flex_Ext	L4_L5_Lat_Bending	L4_L5_axial_rotation	L3_L4_Flex_Ext	L3_L4_Lat_Bending	L3_L4_axial_rotation	L2_L3_Flex_Ext	L2_L3_Lat_Bending	L2_L3_axial_rotation	L1_L2_Flex_Ext	L1_L2_Lat_Bending	L1_L2_axial_rotation	L1_T12_Flex_Ext	L1_T12_Lat_Bending	L1_T12_axial_rotation	Abs_r3	Abs_r2	Abs_r1	Abs_t1	Abs_t2	neck_flexion	neck_bending	neck_rotation	arm_flex_r	arm_add_r	arm_rot_r	elbow_flex_r	pro_sup_r	wrist_flex_r	wrist_dev_r	arm_flex_l	arm_add_l	arm_rot_l	elbow_flex_l	pro_sup_l	wrist_flex_l	wrist_dev_l
7.595745	1.726873	7.560966	85.593903	0.225503	1.005348	0.477647	-12.297087	1.830933	-4.606994	16.386956	0.286006	33.935485	7.517724	0.000000	-14.108425	-0.586833	-8.078627	15.336426	0.267671	35.106055	-3.721360	0.000000	-0.077621	-0.415393	-1.780828	-0.144149	-0.552473	-1.892130	-0.127523	-1.009987	-1.892130	-0.088713	-1.009987	-1.558225	-0.072078	-0.847070	-1.446923	-0.044352	-0.643444	-1.335621	-0.554436	-4.699011	-9.904433	0.000000	0.000000	7.451777	-0.179981	-0.741651	103.579941	-39.182310	34.176137	88.375899	87.883037	-3.411823	3.266323	100.573872	-14.382828	39.758865	71.586182	88.311761	-5.336515	-8.377302
7.617021	1.619938	7.360043	85.154376	0.227846	1.007227	0.477214	-12.322646	1.679944	-4.775104	15.960380	0.278561	33.473077	8.211813	0.000000	-14.145503	-0.438114	-8.242177	14.873027	0.259583	34.427472	-3.982375	0.000000	-0.043247	-0.451321	-2.167282	-0.080314	-0.600256	-2.302737	-0.071051	-1.097341	-2.302737	-0.049427	-1.097341	-1.896372	-0.040159	-0.920333	-1.760917	-0.024711	-0.699096	-1.625462	-0.308910	-5.105429	-12.053774	0.000000	0.000000	9.475755	-0.105110	0.335891	113.857959	-35.568342	40.775294	77.457853	87.302373	-4.557961	1.599743	108.448645	-13.681096	42.529712	62.519885	87.358055	-6.032541	-10.049972
7.638298	1.485588	7.119318	84.668717	0.230079	1.009474	0.476894	-12.314556	1.500393	-4.816167	15.486271	0.270286	32.856474	8.820710	0.000000	-14.140741	-0.271546	-8.601614	14.400999	0.251345	33.613460	-4.069584	0.000000	-0.008753	-0.480502	-2.531802	-0.016255	-0.639068	-2.690040	-0.014380	-1.168293	-2.690040	-0.010004	-1.168293	-2.215327	-0.008128	-0.979840	-2.057089	-0.005001	-0.744298	-1.898852	-0.062521	-5.435535	-14.081124	0.000000	0.000000	11.243129	0.061009	1.444508	123.784321	-31.568835	47.707393	66.464271	86.576709	-5.950017	-0.214646	116.035647	-12.937309	45.096050	53.881191	86.213826	-6.722818	-11.496928
7.659574	1.320003	6.839974	84.155580	0.232164	1.012027	0.476722	-12.263442	1.286555	-4.782169	14.979329	0.261439	32.111271	9.401761	0.000000	-14.082499	-0.087697	-9.122779	13.942874	0.243349	32.680882	-3.985944	0.000000	0.021089	-0.503783	-2.871133	0.039165	-0.670032	-3.050579	0.034648	-1.224899	-3.050579	0.024103	-1.224899	-2.512242	0.019584	-1.027315	-2.332796	0.012050	-0.780360	-2.153350	0.150639	-5.698898	-15.968382	0.000000	0.000000	12.642755	0.243103	2.586373	132.983353	-27.304507	54.700661	55.777183	85.840767	-7.368612	-2.079542	123.064621	-12.183864	47.329579	45.969665	84.906632	-7.294873	-12.700671
7.680851	1.117647	6.514933	83.617818	0.234111	1.014821	0.476685	-12.155401	1.033483	-4.701627	14.449167	0.252186	31.260886	9.975399	0.000000	-13.959168	0.116382	-9.805602	13.507621	0.235752	31.640028	-3.723628	0.000000	0.045312	-0.522983	-3.175596	0.084149	-0.695568	-3.374071	0.074443	-1.271582	-3.374071	0.051787	-1.271582	-2.778647	0.042077	-1.066468	-2.580172	0.025891	-0.810101	-2.381697	0.323659	-5.916092	-17.661712	0.000000	0.000000	13.621584	0.405439	3.753457	140.810646	-23.243898	57.719258	46.302869	88.683069	-8.903322	-3.527368	129.249613	-11.428356	49.116954	39.063956	83.487702	-7.611214	-13.542030
7.702128	0.897512	6.154525	83.056311	0.235880	1.017704	0.476760	-12.002513	0.757700	-4.568158	13.905162	0.242691	30.335817	10.508811	0.000000	-13.782958	0.329435	-10.602659	13.104705	0.228720	30.526488	-3.336482	0.000000	0.062604	-0.535984	-3.440837	0.116261	-0.712858	-3.655889	0.102851	-1.303191	-3.655889	0.071550	-1.303191	-3.010732	0.058134	-1.092978	-2.795680	0.035772	-0.830239	-2.580628	0.447171	-6.063155	-19.136903	0.000000	0.000000	14.191618	0.473735	4.993060	147.041412	-18.998108	63.504067	37.383877	88.524875	-9.844270	-5.436182	134.389946	-10.744043	50.458689	33.406349	82.009770	-7.599939	-13.978209
7.723404	0.683204	5.763399	82.462892	0.237464	1.020574	0.476896	-11.814671	0.484864	-4.354485	13.345502	0.232923	29.340097	10.939170	0.000000	-13.560196	0.533771	-11.481268	12.739566	0.222347	29.366298	-2.874443	0.000000	0.074527	-0.542454	-3.644251	0.138404	-0.721464	-3.872017	0.122440	-1.318922	-3.872017	0.085177	-1.318922	-3.188719	0.069206	-1.106172	-2.960954	0.042585	-0.840261	-2.733188	0.532338	-6.136346	-20.268230	0.000000	0.000000	14.390870	0.414923	6.086552	151.408068	-15.143859	69.223599	29.944977	87.221419	-10.403184	-7.442096	138.397681	-10.095619	51.289104	29.148239	80.601854	-7.316619	-13.992091
7.744681	0.483932	5.379328	81.837132	0.238863	1.023360	0.477107	-11.623646	0.221425	-4.066659	12.790137	0.223230	28.305996	11.248579	0.000000	-13.329966	0.725693	-12.417577	12.415430	0.216690	28.207968	-2.358708	0.000000	0.079013	-0.545652	-3.779348	0.146735	-0.725717	-4.015558	0.129810	-1.326698	-4.015558	0.090304	-1.326698	-3.306930	0.073371	-1.112693	-3.070721	0.045148	-0.845215	-2.834511	0.564381	-6.172522	-21.019602	0.000000	0.000000	14.284638	0.243963	6.856494	154.004053	-12.090234	74.223045	24.354450	84.639396	-10.596183	-9.270415	141.369299	-9.492867	51.615841	26.347381	79.358485	-6.836236	-13.584554
7.765957	0.331116	5.020337	81.125292	0.240082	1.025938	0.477358	-11.434388	-0.024056	-3.700993	12.270710	0.214164	27.294704	11.506962	0.000000	-13.121502	0.902464	-13.392362	12.123142	0.211589	27.099731	-1.875982	0.000000	0.078351	-0.546011	-3.831172	0.145506	-0.726194	-4.070620	0.128723	-1.327571	-4.070620	0.089547	-1.327571	-3.352275	0.072757	-1.113425	-3.112827	0.044770	-0.845771	-2.873379	0.559653	-6.176583	-21.307827	0.000000	0.000000	13.929482	-0.044780	7.027568	155.339938	-10.277358	78.414130	20.689815	80.641097	-10.495938	-10.649020	143.499455	-8.858250	51.490412	24.829542	78.369747	-6.299659	-12.850180
7.787234	0.242587	4.732212	80.351150	0.241096	1.028201	0.477579	-11.303858	-0.234029	-3.253768	11.790433	0.205782	26.346030	11.697402	0.000000	-12.980402	1.056031	-14.316283	11.874702	0.207253	26.090320	-1.522621	0.000000	0.068798	-0.541056	-3.830303	0.127764	-0.719604	-4.069697	0.113028	-1.315523	-4.069697	0.078629	-1.315523	-3.351515	0.063886	-1.103321	-3.112121	0.039311	-0.838095	-2.872727	0.491415	-6.120529	-21.302998	0.000000	0.000000	13.384506	-0.427077	6.892987	156.553517	-9.601612	82.783585	18.633600	75.299197	-9.996263	-11.494045	144.966015	-8.365519	50.822854	24.450531	77.676178	-5.670593	-11.862348
7.808511	0.198899	4.517968	79.529367	0.242020	1.030039	0.477722	-11.227539	-0.422931	-2.749729	11.374174	0.198517	25.518963	11.848274	0.000000	-12.914303	1.197628	-15.220867	11.665121	0.203595	25.227569	-1.224386	0.000000	0.051792	-0.534656	-3.800561	0.096184	-0.711092	-4.038097	0.085090	-1.299962	-4.038097	0.059194	-1.299962	-3.325491	0.048094	-1.090270	-3.087956	0.029594	-0.828182	-2.850421	0.369948	-6.048134	-21.137583	0.000000	0.000000	12.717649	-0.897896	6.597395	157.912910	-9.732854	87.167275	17.843912	68.889230	-9.146922	-11.759863	146.043945	-8.137469	49.860278	24.900124	77.336351	-5.104773	-10.698175
